<svg width="462" height="100" xmlns="http://www.w3.org/2000/svg" xml:space="preserve" version="1.1">

 <g>
  <title>Layer 1</title>
  <g id="watermark_1_">
   <g id="svg_1">
    <g opacity="0.61" id="watermark">
     <g id="svg_2">
      <g id="svg_3">
       <g id="svg_4">
        <g id="svg_5">
         <polygon id="svg_6" fill="#FFFFFF" points="213.765,461.172 208.204,474.017 205.268,474.017 199.726,461.172 202.938,461.172          206.846,470.347 210.81,461.172        "/>
        </g>
        <g id="svg_7">
         <path id="svg_8" fill="#FFFFFF" d="m223.507,469.741l-7.469,0c0.275,1.23 1.321,1.982 2.826,1.982c1.046,0 1.798,-0.312 2.477,-0.954l1.523,1.651c-0.917,1.046 -2.294,1.597 -4.074,1.597c-3.413,0 -5.634,-2.147 -5.634,-5.083c0,-2.954 2.257,-5.083 5.267,-5.083c2.899,0 5.138,1.945 5.138,5.12c0.001,0.22 -0.035,0.532 -0.054,0.77m-7.505,-1.67l4.863,0c-0.202,-1.248 -1.138,-2.055 -2.422,-2.055c-1.304,0 -2.239,0.789 -2.441,2.055"/>
        </g>
        <g id="svg_9">
         <path id="svg_10" fill="#FFFFFF" d="m224.735,468.934c0,-2.973 2.294,-5.083 5.505,-5.083c2.074,0 3.707,0.899 4.423,2.514l-2.22,1.193c-0.532,-0.936 -1.321,-1.358 -2.221,-1.358c-1.45,0 -2.587,1.009 -2.587,2.734c0,1.725 1.138,2.734 2.587,2.734c0.899,0 1.688,-0.404 2.221,-1.358l2.22,1.211c-0.716,1.578 -2.349,2.495 -4.423,2.495c-3.211,0.001 -5.505,-2.109 -5.505,-5.082"/>
        </g>
        <g id="svg_11">
         <path id="svg_12" fill="#FFFFFF" d="m242.828,473.393c-0.587,0.422 -1.45,0.624 -2.331,0.624c-2.33,0 -3.688,-1.193 -3.688,-3.542l0,-4.055l-1.523,0l0,-2.202l1.523,0l0,-2.404l2.863,0l0,2.404l2.459,0l0,2.202l-2.459,0l0,4.019c0,0.844 0.458,1.303 1.229,1.303c0.422,0 0.844,-0.128 1.156,-0.367l0.771,2.018z"/>
        </g>
       </g>
       <g id="svg_13">
        <path id="svg_14" fill="#FFFFFF" d="m262.474,463.997l0,2.643c-0.238,-0.018 -0.422,-0.037 -0.642,-0.037c-1.578,0 -2.624,0.862 -2.624,2.753l0,4.661l-2.863,0l0,-9.873l2.734,0l0,1.303c0.697,-0.954 1.872,-1.45 3.395,-1.45"/>
       </g>
       <g id="svg_15">
        <path id="svg_16" fill="#FFFFFF" d="m263.299,472.53l1.009,-2.239c1.083,0.789 2.697,1.339 4.239,1.339c1.762,0 2.477,-0.587 2.477,-1.376c0,-2.404 -7.469,-0.752 -7.469,-5.524c0,-2.184 1.762,-4 5.413,-4c1.615,0 3.267,0.385 4.459,1.138l-0.918,2.257c-1.193,-0.679 -2.422,-1.009 -3.56,-1.009c-1.761,0 -2.44,0.66 -2.44,1.468c0,2.367 7.468,0.734 7.468,5.45c0,2.147 -1.78,3.982 -5.45,3.982c-2.035,0.001 -4.09,-0.605 -5.228,-1.486"/>
       </g>
       <g id="svg_17">
        <path id="svg_18" fill="#FFFFFF" d="m285.428,469.741l-7.469,0c0.275,1.23 1.321,1.982 2.826,1.982c1.046,0 1.798,-0.312 2.477,-0.954l1.523,1.651c-0.918,1.046 -2.294,1.597 -4.074,1.597c-3.413,0 -5.634,-2.147 -5.634,-5.083c0,-2.954 2.257,-5.083 5.267,-5.083c2.9,0 5.138,1.945 5.138,5.12c0.002,0.22 -0.035,0.532 -0.054,0.77m-7.505,-1.67l4.863,0c-0.202,-1.248 -1.138,-2.055 -2.422,-2.055c-1.303,0 -2.239,0.789 -2.441,2.055"/>
       </g>
       <g id="svg_19">
        <path id="svg_20" fill="#FFFFFF" d="m297.007,469.741l-7.469,0c0.275,1.23 1.321,1.982 2.826,1.982c1.046,0 1.798,-0.312 2.477,-0.954l1.523,1.651c-0.918,1.046 -2.294,1.597 -4.074,1.597c-3.413,0 -5.634,-2.147 -5.634,-5.083c0,-2.954 2.257,-5.083 5.267,-5.083c2.899,0 5.138,1.945 5.138,5.12c0.001,0.22 -0.036,0.532 -0.054,0.77m-7.506,-1.67l4.863,0c-0.202,-1.248 -1.138,-2.055 -2.422,-2.055c-1.303,0 -2.239,0.789 -2.441,2.055"/>
       </g>
       <g id="svg_21">
        <polygon id="svg_22" fill="#FFFFFF" points="303.208,470.145 301.831,471.503 301.831,474.017 298.969,474.017 298.969,460.401         301.831,460.401 301.831,468.108 306.016,464.144 309.429,464.144 305.318,468.328 309.796,474.017 306.327,474.017       "/>
       </g>
       <g id="svg_23">
        <path id="svg_24" fill="#FFFFFF" d="m256.601,475.359l0,0l-2.86,-2.86c-0.435,0.508 -0.953,0.943 -1.534,1.284c-0.092,0.069 -0.186,0.136 -0.283,0.199l3.027,3.027c0.456,0.456 1.195,0.456 1.65,0c0.456,-0.455 0.456,-1.194 0,-1.65"/>
       </g>
       <g id="svg_25">
        <path id="svg_26" fill="#FFFFFF" d="m249.984,463.244c0.221,-0.173 0.495,-0.281 0.797,-0.281c0.042,0 0.083,0.002 0.124,0.006c-0.214,-0.156 -0.478,-0.249 -0.764,-0.249c-0.395,0 -0.744,0.18 -0.981,0.458c-0.051,0 -0.1,0.006 -0.151,0.008c0.039,-0.077 0.064,-0.162 0.064,-0.255c0,-0.234 -0.143,-0.434 -0.346,-0.519c0.087,0.126 0.138,0.279 0.138,0.445c0,0.122 -0.031,0.237 -0.081,0.341c-2.811,0.201 -5.03,2.539 -5.03,5.4c0,2.993 2.426,5.42 5.42,5.42c2.993,0 5.42,-2.426 5.42,-5.42c0.001,-2.719 -2.001,-4.963 -4.61,-5.354m-2.001,1.412c0.435,0 0.844,0.112 1.199,0.309c0.374,-0.245 0.82,-0.387 1.299,-0.387c0.711,0 1.348,0.312 1.784,0.806c-0.435,-0.379 -1.004,-0.61 -1.627,-0.61c-0.449,0 -0.87,0.12 -1.234,0.329c-0.079,0.046 -0.156,0.096 -0.229,0.15c-0.065,-0.048 -0.133,-0.093 -0.204,-0.134c-0.369,-0.219 -0.8,-0.344 -1.26,-0.344c-0.3,0 -0.588,0.054 -0.854,0.152c0.339,-0.173 0.721,-0.271 1.126,-0.271m3.789,4.442c0.115,0.305 0.181,0.634 0.181,0.979c0,1.534 -1.244,2.777 -2.778,2.777c-1.534,0 -2.777,-1.243 -2.777,-2.777c0,-0.345 0.066,-0.674 0.181,-0.979c-0.62,-0.382 -1.035,-1.064 -1.035,-1.846c0,-1.197 0.971,-2.168 2.168,-2.168c0.565,0 1.078,0.218 1.463,0.572c0.386,-0.354 0.899,-0.572 1.464,-0.572c1.197,0 2.168,0.971 2.168,2.168c0,0.782 -0.415,1.464 -1.035,1.846"/>
       </g>
       <g id="svg_27">
        <path id="svg_28" fill="#FFFFFF" d="m251.666,467.061c0,0.497 -0.404,0.901 -0.901,0.901c-0.497,0 -0.901,-0.404 -0.901,-0.901s0.404,-0.901 0.901,-0.901c0.101,0 0.197,0.017 0.287,0.047c-0.03,0.062 -0.045,0.132 -0.045,0.204c0,0.273 0.221,0.494 0.494,0.494c0.05,0 0.099,-0.008 0.146,-0.022c0.013,0.058 0.019,0.117 0.019,0.178"/>
       </g>
       <g id="svg_29">
        <path id="svg_30" fill="#FFFFFF" d="m248.255,467.061c0,0.376 -0.305,0.681 -0.681,0.681c-0.376,0 -0.681,-0.305 -0.681,-0.681s0.305,-0.681 0.681,-0.681c0.076,0 0.149,0.013 0.217,0.035c-0.023,0.047 -0.034,0.1 -0.034,0.155c0,0.206 0.167,0.374 0.374,0.374c0.038,0 0.075,-0.006 0.11,-0.017c0.009,0.043 0.014,0.088 0.014,0.134"/>
       </g>
       <g id="svg_31">
        <g id="svg_32">
         <g id="svg_33">
          <rect id="svg_34" fill="#FFFFFF" height="0.616" width="0.616" y="467.83" x="242.908"/>
         </g>
         <g id="svg_35">
          <rect id="svg_36" fill="#FFFFFF" height="0.616" width="0.616" y="467.83" x="254.827"/>
         </g>
         <g id="svg_37">
          <path id="svg_38" fill="#FFFFFF" d="m255.205,468.082l-0.14,0c0,-3.248 -2.642,-5.89 -5.89,-5.89c-3.248,0 -5.89,2.642 -5.89,5.89l-0.14,0c0,-1.611 0.627,-3.125 1.766,-4.264c1.139,-1.139 2.653,-1.766 4.264,-1.766c1.611,0 3.125,0.627 4.264,1.766c1.139,1.139 1.766,2.653 1.766,4.264"/>
         </g>
        </g>
        <g id="svg_39">
         <rect id="svg_40" fill="#FFFFFF" height="0.616" width="0.616" y="461.814" x="248.868"/>
        </g>
        <g id="svg_41">
         <rect id="svg_42" fill="#FFFFFF" height="0.14" width="8.45" y="462.052" x="244.95"/>
        </g>
        <g id="svg_43">
         <path id="svg_44" fill="#FFFFFF" d="m245.174,462.15c0,0.108 -0.088,0.196 -0.196,0.196c-0.108,0 -0.196,-0.088 -0.196,-0.196c0,-0.108 0.088,-0.196 0.196,-0.196c0.108,0 0.196,0.088 0.196,0.196"/>
        </g>
        <g id="svg_45">
         <path id="svg_46" fill="#FFFFFF" d="m253.596,462.15c0,0.108 -0.088,0.196 -0.196,0.196c-0.108,0 -0.196,-0.088 -0.196,-0.196c0,-0.108 0.088,-0.196 0.196,-0.196c0.109,0 0.196,0.088 0.196,0.196"/>
        </g>
       </g>
      </g>
      <g id="svg_47">
       <path id="svg_48" fill="#FFFFFF" d="m314.356,473.409c0,1.559 -2.364,1.559 -2.364,0c0.001,-1.558 2.364,-1.558 2.364,0z"/>
      </g>
      <g id="svg_49">
       <g id="svg_50">
        <g id="svg_51">
         <path id="svg_52" fill="#FFFFFF" d="m161.739,466.549l1.772,6.088l1.855,-6.088l2.215,0l-2.823,8.14l-2.33,0l-0.837,-2.396l-0.722,-2.708l-0.722,2.708l-0.837,2.396l-2.33,0l-2.839,-8.14l2.231,0l1.855,6.088l1.756,-6.088l1.756,0z"/>
        </g>
        <g id="svg_53">
         <path id="svg_54" fill="#FFFFFF" d="m176.713,466.549l1.772,6.088l1.855,-6.088l2.215,0l-2.823,8.14l-2.33,0l-0.837,-2.396l-0.722,-2.708l-0.722,2.708l-0.837,2.396l-2.33,0l-2.839,-8.14l2.231,0l1.855,6.088l1.756,-6.088l1.756,0z"/>
        </g>
        <g id="svg_55">
         <path id="svg_56" fill="#FFFFFF" d="m191.687,466.549l1.772,6.088l1.855,-6.088l2.215,0l-2.823,8.14l-2.33,0l-0.837,-2.396l-0.722,-2.708l-0.722,2.708l-0.837,2.396l-2.33,0l-2.839,-8.14l2.231,0l1.855,6.088l1.756,-6.088l1.756,0z"/>
        </g>
       </g>
       <g id="svg_57">
        <path id="svg_58" fill="#FFFFFF" d="m200.908,473.52c0,1.559 -2.364,1.559 -2.364,0c0.001,-1.558 2.364,-1.558 2.364,0z"/>
       </g>
       <g id="svg_59">
        <path id="svg_60" fill="#FFFFFF" d="m322.71,473.409c-0.935,0.919 -1.919,1.28 -3.117,1.28c-2.346,0 -4.3,-1.411 -4.3,-4.282s1.953,-4.284 4.3,-4.284c1.149,0 2.035,0.329 2.921,1.199l-1.264,1.329c-0.476,-0.428 -1.066,-0.64 -1.623,-0.64c-1.346,0 -2.33,0.985 -2.33,2.396c0,1.542 1.05,2.362 2.297,2.362c0.64,0 1.28,-0.18 1.772,-0.672l1.344,1.312z"/>
       </g>
       <g id="svg_61">
        <path id="svg_62" fill="#FFFFFF" d="m331.805,470.472c0,2.33 -1.591,4.217 -4.217,4.217c-2.626,0 -4.201,-1.887 -4.201,-4.217c0,-2.314 1.609,-4.217 4.185,-4.217c2.577,0 4.233,1.903 4.233,4.217zm-6.416,0c0,1.231 0.739,2.38 2.199,2.38c1.46,0 2.199,-1.149 2.199,-2.38c0,-1.215 -0.854,-2.396 -2.199,-2.396c-1.444,0.001 -2.199,1.182 -2.199,2.396z"/>
       </g>
       <g id="svg_63">
        <path id="svg_64" fill="#FFFFFF" d="m338.572,474.689l0,-4.332c0,-1.068 -0.559,-2.035 -1.658,-2.035c-1.082,0 -1.722,0.967 -1.722,2.035l0,4.332l-2.003,0l0,-8.107l1.855,0l0.148,0.985c0.426,-0.82 1.362,-1.116 2.133,-1.116c0.969,0 1.937,0.394 2.396,1.51c0.723,-1.149 1.658,-1.478 2.708,-1.478c2.297,0 3.43,1.412 3.43,3.84l0,4.365l-2.003,0l0,-4.365c0,-1.066 -0.442,-1.97 -1.526,-1.97c-1.082,0 -1.756,0.935 -1.756,2.003l0,4.332l-2.002,0l0,0.001z"/>
       </g>
      </g>
     </g>
    </g>
    <g id="svg_65" opacity="0.61">
     <g id="svg_66">
      <g id="svg_67">
       <path id="svg_68" fill="#FFFFFF" d="m345.988,431.299c-0.006,-1.224 -0.959,-2.121 -2.189,-2.14c-0.924,-0.014 -0.832,0.12 -0.834,-0.867c-0.003,-1.097 -0.007,-2.194 0.003,-3.292c0.003,-0.379 -0.112,-0.691 -0.362,-0.976c-2.342,-2.668 -4.678,-5.342 -7.019,-8.011c-0.12,-0.137 -0.275,-0.244 -0.414,-0.366c-6.214,0 -12.427,0 -18.641,0c-0.794,0.293 -1.14,0.868 -1.138,1.709c0.01,3.748 0.004,7.496 0.004,11.243c0,0.556 -0.003,0.589 -0.55,0.551c-1.497,-0.102 -2.516,0.986 -2.497,2.492c0.044,3.476 0.013,6.953 0.014,10.429c0.001,1.58 0.867,2.443 2.45,2.449c0.582,0.002 0.582,0.002 0.582,0.6c0,2.219 -0.001,4.438 0.001,6.657c0.001,1.192 0.58,1.771 1.768,1.771c8.013,0.001 16.027,0.001 24.04,0c1.168,0 1.755,-0.583 1.757,-1.745c0.002,-2.256 0,-4.512 0.001,-6.768c0,-0.512 0.002,-0.511 0.52,-0.515c0.271,-0.002 0.541,0.008 0.809,-0.058c0.996,-0.246 1.69,-1.044 1.694,-2.069c0.016,-3.697 0.018,-7.396 0.001,-11.094zm-28.451,-14.137c5.337,0 10.674,0 16.01,0c0.548,0 0.554,0.007 0.554,0.561c0.001,2.243 -0.001,4.486 0.001,6.73c0.001,0.811 0.249,1.059 1.06,1.059c1.91,0.001 3.821,0 5.731,0.001c0.458,0 0.479,0.021 0.481,0.483c0.003,0.887 0.002,1.775 0,2.662c-0.001,0.477 -0.024,0.498 -0.504,0.499c-3.895,0.001 -7.79,0 -11.684,0c-3.882,0 -7.765,0 -11.647,0c-0.55,0 -0.552,-0.001 -0.552,-0.561c-0.001,-3.624 -0.001,-7.247 0,-10.871c0,-0.559 0.004,-0.563 0.55,-0.563zm23.285,34.417c-3.883,0.001 -7.766,0 -11.65,0c-3.871,0 -7.742,0 -11.613,0c-0.572,0 -0.574,-0.002 -0.574,-0.579c-0.001,-1.997 -0.001,-3.994 0.001,-5.991c0,-0.464 0.023,-0.486 0.478,-0.487c7.803,-0.001 15.607,-0.001 23.41,0c0.478,0 0.499,0.02 0.499,0.503c0.002,1.997 0.001,3.994 0,5.991c0.002,0.558 -0.003,0.563 -0.551,0.563z"/>
      </g>
      <g id="svg_69">
       <g id="svg_70">
        <rect id="svg_71" fill="#FFFFFF" height="1.054" width="1.757" y="417.053" x="327.418"/>
       </g>
       <g id="svg_72">
        <rect id="svg_73" fill="#FFFFFF" height="1.054" width="1.757" y="418.107" x="325.662"/>
       </g>
       <g id="svg_74">
        <rect id="svg_75" fill="#FFFFFF" height="1.054" width="1.757" y="419.161" x="327.418"/>
       </g>
       <g id="svg_76">
        <rect id="svg_77" fill="#FFFFFF" height="1.054" width="1.757" y="420.215" x="325.662"/>
       </g>
       <g id="svg_78">
        <rect id="svg_79" fill="#FFFFFF" height="1.054" width="1.757" y="421.269" x="327.418"/>
       </g>
       <g id="svg_80">
        <rect id="svg_81" fill="#FFFFFF" height="1.054" width="1.757" y="422.323" x="325.662"/>
       </g>
       <g id="svg_82">
        <rect id="svg_83" fill="#FFFFFF" height="1.054" width="1.757" y="423.378" x="327.418"/>
       </g>
       <g id="svg_84">
        <rect id="svg_85" fill="#FFFFFF" height="1.054" width="1.757" y="424.432" x="325.662"/>
       </g>
       <g id="svg_86">
        <rect id="svg_87" fill="#FFFFFF" height="1.054" width="1.757" y="425.486" x="327.418"/>
       </g>
       <g id="svg_88">
        <rect id="svg_89" fill="#FFFFFF" height="1.054" width="1.757" y="426.54" x="325.662"/>
       </g>
       <g id="svg_90">
        <rect id="svg_91" fill="#FFFFFF" height="1.054" width="1.757" y="427.594" x="327.418"/>
       </g>
       <g id="svg_92">
        <rect id="svg_93" fill="#FFFFFF" height="1.054" width="1.757" y="428.648" x="325.662"/>
       </g>
      </g>
     </g>
     <g id="svg_94">
      <path id="svg_95" fill="#FFFFFF" d="m187.637,431.299c-0.006,-1.224 -0.959,-2.121 -2.189,-2.14c-0.924,-0.014 -0.832,0.12 -0.834,-0.867c-0.003,-1.097 -0.007,-2.194 0.003,-3.292c0.003,-0.379 -0.112,-0.691 -0.362,-0.976c-2.342,-2.668 -4.678,-5.342 -7.019,-8.011c-0.12,-0.137 -0.275,-0.244 -0.414,-0.366c-6.214,0 -12.427,0 -18.641,0c-0.794,0.293 -1.14,0.868 -1.138,1.709c0.01,3.748 0.004,7.496 0.004,11.243c0,0.556 -0.003,0.589 -0.55,0.551c-1.497,-0.102 -2.516,0.986 -2.497,2.492c0.044,3.476 0.013,6.953 0.014,10.429c0.001,1.58 0.867,2.443 2.45,2.449c0.582,0.002 0.582,0.002 0.582,0.6c0,2.219 -0.001,4.438 0.001,6.657c0.001,1.192 0.58,1.771 1.768,1.771c8.013,0.001 16.027,0.001 24.04,0c1.168,0 1.755,-0.583 1.757,-1.745c0.002,-2.256 0,-4.512 0.001,-6.768c0,-0.512 0.002,-0.511 0.52,-0.515c0.271,-0.002 0.541,0.008 0.809,-0.058c0.996,-0.246 1.69,-1.044 1.694,-2.069c0.016,-3.697 0.019,-7.396 0.001,-11.094zm-28.45,-14.137c5.337,0 10.674,0 16.01,0c0.548,0 0.554,0.007 0.554,0.561c0.001,2.243 -0.001,4.486 0.001,6.73c0.001,0.811 0.249,1.059 1.06,1.059c1.91,0.001 3.821,0 5.731,0.001c0.458,0 0.479,0.021 0.481,0.483c0.003,0.887 0.002,1.775 0,2.662c-0.001,0.477 -0.024,0.498 -0.504,0.499c-3.895,0.001 -7.79,0 -11.684,0c-3.882,0 -7.765,0 -11.647,0c-0.55,0 -0.552,-0.001 -0.552,-0.561c-0.001,-3.624 -0.001,-7.247 0,-10.871c-0.001,-0.559 0.003,-0.563 0.55,-0.563zm23.285,34.417c-3.883,0.001 -7.766,0 -11.65,0c-3.871,0 -7.742,0 -11.613,0c-0.572,0 -0.574,-0.002 -0.574,-0.579c-0.001,-1.997 -0.001,-3.994 0.001,-5.991c0,-0.464 0.023,-0.486 0.478,-0.487c7.803,-0.001 15.607,-0.001 23.41,0c0.478,0 0.499,0.02 0.499,0.503c0.002,1.997 0.001,3.994 0,5.991c0.001,0.558 -0.004,0.563 -0.551,0.563z"/>
     </g>
     <g id="svg_96">
      <path id="svg_97" fill="#FFFFFF" d="m159.779,440.669l0,-7.897l2.779,0c0.375,0 0.726,0.061 1.053,0.182c0.327,0.121 0.612,0.292 0.855,0.513c0.242,0.221 0.434,0.483 0.573,0.789c0.14,0.305 0.21,0.642 0.21,1.009c0,0.375 -0.07,0.715 -0.21,1.02c-0.14,0.305 -0.331,0.568 -0.573,0.789c-0.243,0.221 -0.528,0.392 -0.855,0.513c-0.327,0.121 -0.678,0.182 -1.053,0.182l-1.29,0l0,2.901l-1.489,0l0,-0.001zm2.801,-4.313c0.39,0 0.684,-0.111 0.882,-0.331c0.199,-0.22 0.298,-0.474 0.298,-0.761c0,-0.14 -0.024,-0.276 -0.072,-0.408c-0.048,-0.132 -0.121,-0.248 -0.221,-0.347c-0.099,-0.099 -0.223,-0.178 -0.37,-0.237c-0.147,-0.059 -0.32,-0.089 -0.518,-0.089l-1.312,0l0,2.173l1.313,0z"/>
      <path id="svg_98" fill="#FFFFFF" d="m166.308,432.771l1.731,0l3.177,5.294l0.088,0l-0.088,-1.522l0,-3.772l1.478,0l0,7.897l-1.566,0l-3.353,-5.592l-0.088,0l0.088,1.522l0,4.07l-1.467,0l0,-7.897z"/>
      <path id="svg_99" fill="#FFFFFF" d="m177.922,436.334l3.872,0c0.022,0.089 0.04,0.195 0.055,0.32c0.014,0.125 0.022,0.25 0.022,0.375c0,0.507 -0.077,0.985 -0.231,1.434c-0.154,0.449 -0.397,0.849 -0.728,1.202c-0.353,0.375 -0.776,0.666 -1.268,0.871c-0.493,0.206 -1.055,0.309 -1.688,0.309c-0.574,0 -1.114,-0.103 -1.622,-0.309c-0.507,-0.206 -0.948,-0.492 -1.323,-0.86c-0.375,-0.367 -0.673,-0.803 -0.894,-1.307c-0.221,-0.504 -0.331,-1.053 -0.331,-1.649c0,-0.595 0.11,-1.145 0.331,-1.649c0.221,-0.504 0.518,-0.939 0.894,-1.307c0.375,-0.367 0.816,-0.654 1.323,-0.86c0.507,-0.206 1.048,-0.309 1.622,-0.309c0.64,0 1.211,0.11 1.715,0.331c0.504,0.221 0.935,0.526 1.296,0.915l-1.025,1.004c-0.258,-0.272 -0.544,-0.48 -0.861,-0.623c-0.316,-0.143 -0.695,-0.215 -1.136,-0.215c-0.361,0 -0.703,0.065 -1.026,0.193c-0.324,0.129 -0.607,0.311 -0.85,0.546c-0.242,0.235 -0.436,0.52 -0.579,0.855c-0.143,0.335 -0.215,0.708 -0.215,1.119c0,0.412 0.072,0.785 0.215,1.12c0.143,0.335 0.338,0.62 0.584,0.855c0.246,0.235 0.531,0.418 0.855,0.546c0.323,0.129 0.669,0.193 1.037,0.193c0.419,0 0.773,-0.061 1.064,-0.182c0.29,-0.121 0.538,-0.278 0.744,-0.469c0.148,-0.132 0.275,-0.3 0.381,-0.502c0.106,-0.202 0.189,-0.428 0.248,-0.678l-2.482,0l0,-1.269l0.001,0z"/>
     </g>
     <g id="svg_100">
      <path id="svg_101" fill="#FFFFFF" d="m224.019,431.299c-0.006,-1.224 -0.959,-2.121 -2.189,-2.14c-0.924,-0.014 -0.832,0.12 -0.834,-0.867c-0.003,-1.097 -0.007,-2.194 0.003,-3.292c0.003,-0.379 -0.112,-0.691 -0.362,-0.976c-2.342,-2.668 -4.678,-5.342 -7.019,-8.011c-0.12,-0.137 -0.275,-0.244 -0.414,-0.366c-6.214,0 -12.427,0 -18.641,0c-0.794,0.293 -1.14,0.868 -1.138,1.709c0.01,3.748 0.004,7.496 0.004,11.243c0,0.556 -0.003,0.589 -0.55,0.551c-1.497,-0.102 -2.516,0.986 -2.497,2.492c0.044,3.476 0.013,6.953 0.014,10.429c0.001,1.58 0.867,2.443 2.45,2.449c0.582,0.002 0.582,0.002 0.582,0.6c0,2.219 -0.001,4.438 0.001,6.657c0.001,1.192 0.58,1.771 1.768,1.771c8.013,0.001 16.027,0.001 24.04,0c1.168,0 1.755,-0.583 1.757,-1.745c0.002,-2.256 0,-4.512 0.001,-6.768c0,-0.512 0.002,-0.511 0.52,-0.515c0.271,-0.002 0.541,0.008 0.809,-0.058c0.997,-0.246 1.69,-1.044 1.694,-2.069c0.016,-3.697 0.018,-7.396 0.001,-11.094zm-28.451,-14.137c5.337,0 10.674,0 16.01,0c0.548,0 0.554,0.007 0.554,0.561c0.001,2.243 -0.001,4.486 0.001,6.73c0.001,0.811 0.249,1.059 1.06,1.059c1.91,0.001 3.821,0 5.731,0.001c0.458,0 0.479,0.021 0.481,0.483c0.003,0.887 0.002,1.775 0,2.662c-0.001,0.477 -0.024,0.498 -0.504,0.499c-3.895,0.001 -7.79,0 -11.684,0c-3.882,0 -7.765,0 -11.647,0c-0.55,0 -0.552,-0.001 -0.552,-0.561c-0.001,-3.624 -0.001,-7.247 0,-10.871c0,-0.559 0.004,-0.563 0.55,-0.563zm23.286,34.417c-3.883,0.001 -7.766,0 -11.65,0c-3.871,0 -7.742,0 -11.613,0c-0.572,0 -0.574,-0.002 -0.574,-0.579c-0.001,-1.997 -0.001,-3.994 0.001,-5.991c0,-0.464 0.023,-0.486 0.478,-0.487c7.803,-0.001 15.607,-0.001 23.41,0c0.478,0 0.499,0.02 0.499,0.503c0.002,1.997 0.001,3.994 0,5.991c0.001,0.558 -0.004,0.563 -0.551,0.563z"/>
     </g>
     <g id="svg_102">
      <path id="svg_103" fill="#FFFFFF" d="m205.111,432.771l1.699,0l2.967,7.897l-1.644,0l-0.651,-1.886l-3.044,0l-0.651,1.886l-1.643,0l2.967,-7.897zm1.886,4.644l-0.706,-1.974l-0.287,-0.96l-0.088,0l-0.287,0.96l-0.706,1.974l2.074,0z"/>
      <path id="svg_104" fill="#FFFFFF" d="m211.331,434.536c-0.125,0 -0.245,-0.024 -0.359,-0.072c-0.114,-0.048 -0.213,-0.114 -0.298,-0.199c-0.084,-0.084 -0.151,-0.182 -0.198,-0.292c-0.048,-0.11 -0.072,-0.232 -0.072,-0.364s0.024,-0.254 0.072,-0.364c0.048,-0.11 0.114,-0.208 0.198,-0.292c0.084,-0.084 0.184,-0.151 0.298,-0.198c0.114,-0.048 0.233,-0.072 0.359,-0.072c0.257,0 0.478,0.09 0.662,0.27c0.184,0.181 0.276,0.399 0.276,0.656s-0.092,0.476 -0.276,0.656c-0.184,0.181 -0.404,0.271 -0.662,0.271zm-0.716,6.133l0,-5.404l1.445,0l0,5.404l-1.445,0z"/>
     </g>
     <g id="svg_105">
      <path id="svg_106" fill="#FFFFFF" d="m261.044,431.299c-0.006,-1.224 -0.959,-2.121 -2.189,-2.14c-0.924,-0.014 -0.832,0.12 -0.834,-0.867c-0.003,-1.097 -0.007,-2.194 0.003,-3.292c0.003,-0.379 -0.112,-0.691 -0.362,-0.976c-2.342,-2.668 -4.678,-5.342 -7.019,-8.011c-0.12,-0.137 -0.275,-0.244 -0.414,-0.366c-6.214,0 -12.427,0 -18.641,0c-0.794,0.293 -1.14,0.868 -1.138,1.709c0.01,3.748 0.004,7.496 0.004,11.243c0,0.556 -0.003,0.589 -0.55,0.551c-1.497,-0.102 -2.516,0.986 -2.497,2.492c0.044,3.476 0.013,6.953 0.014,10.429c0.001,1.58 0.867,2.443 2.45,2.449c0.582,0.002 0.582,0.002 0.582,0.6c0,2.219 -0.001,4.438 0.001,6.657c0.001,1.192 0.58,1.771 1.768,1.771c8.013,0.001 16.027,0.001 24.04,0c1.168,0 1.755,-0.583 1.757,-1.745c0.002,-2.256 0,-4.512 0.001,-6.768c0,-0.512 0.002,-0.511 0.52,-0.515c0.271,-0.002 0.541,0.008 0.809,-0.058c0.996,-0.246 1.69,-1.044 1.694,-2.069c0.016,-3.697 0.018,-7.396 0.001,-11.094zm-28.451,-14.137c5.337,0 10.674,0 16.01,0c0.548,0 0.554,0.007 0.554,0.561c0.001,2.243 -0.001,4.486 0.001,6.73c0.001,0.811 0.249,1.059 1.06,1.059c1.91,0.001 3.821,0 5.731,0.001c0.458,0 0.479,0.021 0.481,0.483c0.003,0.887 0.002,1.775 0,2.662c-0.001,0.477 -0.024,0.498 -0.504,0.499c-3.895,0.001 -7.79,0 -11.684,0c-3.882,0 -7.765,0 -11.647,0c-0.55,0 -0.552,-0.001 -0.552,-0.561c-0.001,-3.624 -0.001,-7.247 0,-10.871c-0.001,-0.559 0.004,-0.563 0.55,-0.563zm23.285,34.417c-3.883,0.001 -7.766,0 -11.65,0c-3.871,0 -7.742,0 -11.613,0c-0.572,0 -0.574,-0.002 -0.574,-0.579c-0.001,-1.997 -0.001,-3.994 0.001,-5.991c0,-0.464 0.023,-0.486 0.478,-0.487c7.803,-0.001 15.607,-0.001 23.41,0c0.478,0 0.499,0.02 0.499,0.503c0.002,1.997 0.001,3.994 0,5.991c0.002,0.558 -0.003,0.563 -0.551,0.563z"/>
     </g>
     <g id="svg_107">
      <path id="svg_108" fill="#FFFFFF" d="m236.361,440.845c-0.338,0 -0.662,-0.048 -0.971,-0.143c-0.309,-0.095 -0.592,-0.239 -0.849,-0.43c-0.257,-0.191 -0.481,-0.425 -0.673,-0.7c-0.191,-0.276 -0.342,-0.597 -0.452,-0.965l1.401,-0.551c0.103,0.397 0.283,0.726 0.54,0.987c0.257,0.261 0.596,0.392 1.015,0.392c0.154,0 0.303,-0.02 0.447,-0.061c0.143,-0.04 0.272,-0.099 0.386,-0.176s0.204,-0.175 0.27,-0.292c0.066,-0.118 0.099,-0.254 0.099,-0.408c0,-0.147 -0.026,-0.279 -0.077,-0.397c-0.051,-0.117 -0.138,-0.227 -0.259,-0.331c-0.121,-0.103 -0.28,-0.202 -0.475,-0.298c-0.195,-0.095 -0.435,-0.195 -0.722,-0.298l-0.485,-0.176c-0.213,-0.073 -0.429,-0.173 -0.645,-0.298c-0.217,-0.125 -0.413,-0.276 -0.59,-0.452c-0.177,-0.176 -0.322,-0.384 -0.436,-0.623c-0.114,-0.239 -0.171,-0.509 -0.171,-0.81c0,-0.309 0.06,-0.597 0.182,-0.866c0.121,-0.268 0.294,-0.503 0.518,-0.706c0.224,-0.202 0.492,-0.36 0.805,-0.474s0.66,-0.171 1.042,-0.171c0.397,0 0.74,0.053 1.031,0.16c0.291,0.107 0.537,0.243 0.739,0.408c0.202,0.165 0.366,0.348 0.491,0.546c0.125,0.199 0.217,0.386 0.276,0.563l-1.312,0.551c-0.074,-0.221 -0.208,-0.419 -0.402,-0.596c-0.195,-0.176 -0.462,-0.265 -0.8,-0.265c-0.324,0 -0.592,0.075 -0.805,0.226c-0.213,0.151 -0.32,0.348 -0.32,0.59c0,0.235 0.103,0.436 0.309,0.601c0.206,0.165 0.533,0.325 0.982,0.48l0.497,0.165c0.316,0.111 0.605,0.237 0.866,0.381c0.261,0.143 0.485,0.314 0.673,0.513c0.187,0.199 0.331,0.425 0.43,0.678c0.1,0.254 0.149,0.546 0.149,0.877c0,0.412 -0.083,0.767 -0.248,1.064c-0.165,0.298 -0.377,0.542 -0.634,0.734c-0.258,0.191 -0.548,0.335 -0.872,0.43c-0.325,0.093 -0.641,0.141 -0.95,0.141z"/>
      <path id="svg_109" fill="#FFFFFF" d="m239.516,432.771l1.61,0l1.633,4.754l0.287,1.015l0.088,0l0.309,-1.015l1.699,-4.754l1.61,0l-2.879,7.897l-1.566,0l-2.791,-7.897z"/>
      <path id="svg_110" fill="#FFFFFF" d="m251.097,436.334l3.871,0c0.022,0.089 0.04,0.195 0.055,0.32c0.015,0.125 0.023,0.25 0.023,0.375c0,0.507 -0.078,0.985 -0.232,1.434c-0.154,0.449 -0.397,0.849 -0.728,1.202c-0.353,0.375 -0.775,0.666 -1.268,0.871c-0.493,0.206 -1.055,0.309 -1.688,0.309c-0.574,0 -1.114,-0.103 -1.621,-0.309c-0.507,-0.206 -0.949,-0.492 -1.324,-0.86c-0.375,-0.367 -0.673,-0.803 -0.894,-1.307c-0.22,-0.504 -0.331,-1.053 -0.331,-1.649c0,-0.595 0.11,-1.145 0.331,-1.649c0.221,-0.504 0.518,-0.939 0.894,-1.307c0.375,-0.367 0.816,-0.654 1.324,-0.86c0.507,-0.206 1.047,-0.309 1.621,-0.309c0.64,0 1.211,0.11 1.715,0.331c0.504,0.221 0.936,0.526 1.296,0.915l-1.026,1.004c-0.257,-0.272 -0.544,-0.48 -0.861,-0.623c-0.316,-0.143 -0.694,-0.215 -1.136,-0.215c-0.36,0 -0.702,0.065 -1.026,0.193c-0.323,0.129 -0.607,0.311 -0.849,0.546c-0.243,0.235 -0.436,0.52 -0.579,0.855c-0.143,0.335 -0.215,0.708 -0.215,1.119c0,0.412 0.072,0.785 0.215,1.12c0.143,0.335 0.338,0.62 0.585,0.855c0.246,0.235 0.531,0.418 0.854,0.546c0.324,0.129 0.669,0.193 1.037,0.193c0.419,0 0.774,-0.061 1.064,-0.182c0.29,-0.121 0.539,-0.278 0.745,-0.469c0.147,-0.132 0.274,-0.3 0.38,-0.502c0.107,-0.202 0.189,-0.428 0.248,-0.678l-2.482,0l0,-1.269l0.002,0z"/>
     </g>
     <g id="svg_111">
      <path id="svg_112" fill="#FFFFFF" d="m297.3,431.299c-0.006,-1.224 -0.959,-2.121 -2.189,-2.14c-0.924,-0.014 -0.832,0.12 -0.834,-0.867c-0.003,-1.097 -0.007,-2.194 0.003,-3.292c0.003,-0.379 -0.112,-0.691 -0.362,-0.976c-2.342,-2.668 -4.678,-5.342 -7.019,-8.011c-0.12,-0.137 -0.275,-0.244 -0.414,-0.366c-6.214,0 -12.427,0 -18.641,0c-0.794,0.293 -1.14,0.868 -1.138,1.709c0.01,3.748 0.004,7.496 0.004,11.243c0,0.556 -0.003,0.589 -0.55,0.551c-1.497,-0.102 -2.516,0.986 -2.497,2.492c0.044,3.476 0.013,6.953 0.014,10.429c0.001,1.58 0.867,2.443 2.45,2.449c0.582,0.002 0.582,0.002 0.582,0.6c0,2.219 -0.001,4.438 0.001,6.657c0.001,1.192 0.58,1.771 1.768,1.771c8.013,0.001 16.027,0.001 24.04,0c1.168,0 1.755,-0.583 1.757,-1.745c0.002,-2.256 0,-4.512 0.001,-6.768c0,-0.512 0.002,-0.511 0.52,-0.515c0.271,-0.002 0.541,0.008 0.809,-0.058c0.996,-0.246 1.69,-1.044 1.694,-2.069c0.016,-3.697 0.019,-7.396 0.001,-11.094zm-28.45,-14.137c5.337,0 10.674,0 16.01,0c0.548,0 0.554,0.007 0.554,0.561c0.001,2.243 -0.001,4.486 0.001,6.73c0.001,0.811 0.249,1.059 1.06,1.059c1.91,0.001 3.821,0 5.731,0.001c0.458,0 0.479,0.021 0.481,0.483c0.003,0.887 0.002,1.775 0,2.662c-0.001,0.477 -0.024,0.498 -0.504,0.499c-3.895,0.001 -7.79,0 -11.684,0c-3.882,0 -7.765,0 -11.647,0c-0.55,0 -0.552,-0.001 -0.552,-0.561c-0.001,-3.624 -0.001,-7.247 0,-10.871c-0.001,-0.559 0.003,-0.563 0.55,-0.563zm23.285,34.417c-3.883,0.001 -7.766,0 -11.65,0c-3.871,0 -7.742,0 -11.613,0c-0.572,0 -0.574,-0.002 -0.574,-0.579c-0.001,-1.997 -0.001,-3.994 0.001,-5.991c0,-0.464 0.023,-0.486 0.478,-0.487c7.803,-0.001 15.607,-0.001 23.41,0c0.478,0 0.499,0.02 0.499,0.503c0.001,1.997 0.001,3.994 0,5.991c0.001,0.558 -0.004,0.563 -0.551,0.563z"/>
     </g>
     <g id="svg_113">
      <path id="svg_114" fill="#FFFFFF" d="m272.966,434.183l0,1.831l3.165,0l0,1.412l-3.165,0l0,1.831l3.518,0l0,1.412l-5.007,0l0,-7.897l5.007,0l0,1.412l-3.518,0l0,-0.001z"/>
      <path id="svg_115" fill="#FFFFFF" d="m277.852,440.669l0,-7.897l2.779,0c0.375,0 0.726,0.061 1.053,0.182c0.327,0.121 0.612,0.292 0.855,0.513c0.243,0.221 0.434,0.483 0.574,0.789c0.14,0.305 0.209,0.642 0.209,1.009c0,0.375 -0.07,0.715 -0.209,1.02c-0.14,0.305 -0.331,0.568 -0.574,0.789c-0.243,0.221 -0.528,0.392 -0.855,0.513c-0.327,0.121 -0.678,0.182 -1.053,0.182l-1.29,0l0,2.901l-1.489,0l0,-0.001zm2.801,-4.313c0.389,0 0.684,-0.111 0.882,-0.331c0.199,-0.22 0.298,-0.474 0.298,-0.761c0,-0.14 -0.024,-0.276 -0.072,-0.408c-0.048,-0.132 -0.121,-0.248 -0.221,-0.347c-0.099,-0.099 -0.222,-0.178 -0.37,-0.237c-0.147,-0.059 -0.32,-0.089 -0.518,-0.089l-1.312,0l0,2.173l1.313,0z"/>
      <path id="svg_116" fill="#FFFFFF" d="m286.797,440.845c-0.338,0 -0.662,-0.048 -0.971,-0.143c-0.309,-0.095 -0.592,-0.239 -0.849,-0.43c-0.257,-0.191 -0.482,-0.425 -0.673,-0.7c-0.191,-0.276 -0.342,-0.597 -0.452,-0.965l1.401,-0.551c0.103,0.397 0.283,0.726 0.541,0.987c0.257,0.261 0.595,0.392 1.015,0.392c0.154,0 0.303,-0.02 0.447,-0.061c0.143,-0.04 0.272,-0.099 0.386,-0.176c0.114,-0.077 0.204,-0.175 0.27,-0.292c0.066,-0.118 0.1,-0.254 0.1,-0.408c0,-0.147 -0.026,-0.279 -0.077,-0.397c-0.051,-0.117 -0.138,-0.227 -0.259,-0.331c-0.121,-0.103 -0.279,-0.202 -0.474,-0.298c-0.195,-0.095 -0.436,-0.195 -0.723,-0.298l-0.485,-0.176c-0.213,-0.073 -0.428,-0.173 -0.645,-0.298c-0.217,-0.125 -0.414,-0.276 -0.59,-0.452c-0.176,-0.176 -0.322,-0.384 -0.436,-0.623c-0.114,-0.239 -0.171,-0.509 -0.171,-0.81c0,-0.309 0.061,-0.597 0.182,-0.866c0.121,-0.268 0.294,-0.503 0.518,-0.706c0.224,-0.202 0.493,-0.36 0.805,-0.474c0.312,-0.114 0.66,-0.171 1.042,-0.171c0.397,0 0.741,0.053 1.031,0.16c0.29,0.107 0.537,0.243 0.739,0.408c0.202,0.165 0.365,0.348 0.491,0.546c0.125,0.199 0.217,0.386 0.276,0.563l-1.312,0.551c-0.074,-0.221 -0.208,-0.419 -0.403,-0.596c-0.195,-0.176 -0.462,-0.265 -0.799,-0.265c-0.324,0 -0.592,0.075 -0.805,0.226c-0.213,0.151 -0.32,0.348 -0.32,0.59c0,0.235 0.103,0.436 0.309,0.601c0.206,0.165 0.533,0.325 0.982,0.48l0.496,0.165c0.316,0.111 0.605,0.237 0.866,0.381c0.261,0.143 0.485,0.314 0.673,0.513c0.187,0.199 0.331,0.425 0.43,0.678c0.099,0.254 0.149,0.546 0.149,0.877c0,0.412 -0.083,0.767 -0.248,1.064c-0.165,0.298 -0.377,0.542 -0.634,0.734c-0.258,0.191 -0.548,0.335 -0.872,0.43c-0.326,0.093 -0.643,0.141 -0.951,0.141z"/>
     </g>
     <g id="svg_117">
      <path id="svg_118" fill="#FFFFFF" d="m321.394,439.168l4.004,-4.985l-3.827,0l0,-1.412l5.559,0l0,1.5l-3.96,4.985l4.004,0l0,1.412l-5.779,0l0,-1.5l-0.001,0z"/>
      <path id="svg_119" fill="#FFFFFF" d="m328.409,432.771l1.489,0l0,7.897l-1.489,0l0,-7.897z"/>
      <path id="svg_120" fill="#FFFFFF" d="m331.486,440.669l0,-7.897l2.779,0c0.375,0 0.726,0.061 1.053,0.182c0.327,0.121 0.612,0.292 0.855,0.513s0.434,0.483 0.574,0.789c0.14,0.305 0.209,0.642 0.209,1.009c0,0.375 -0.07,0.715 -0.209,1.02c-0.14,0.305 -0.331,0.568 -0.574,0.789c-0.243,0.221 -0.528,0.392 -0.855,0.513c-0.327,0.121 -0.678,0.182 -1.053,0.182l-1.29,0l0,2.901l-1.489,0l0,-0.001zm2.802,-4.313c0.389,0 0.684,-0.111 0.882,-0.331c0.199,-0.22 0.298,-0.474 0.298,-0.761c0,-0.14 -0.024,-0.276 -0.072,-0.408c-0.048,-0.132 -0.121,-0.248 -0.221,-0.347c-0.099,-0.099 -0.222,-0.178 -0.37,-0.237c-0.147,-0.059 -0.32,-0.089 -0.518,-0.089l-1.312,0l0,2.173l1.313,0z"/>
     </g>
    </g>
    <g id="svg_121" opacity="0.61">
     <path id="svg_122" fill="#FFFFFF" d="m300.133,433.27l9.067,0l0,2.242l-9.067,0l0,-2.242zm0,3.866l9.067,0l0,2.243l-9.067,0l0,-2.243z"/>
    </g>
   </g>
   <g id="svg_123" opacity="0.61">
    <path id="svg_124" fill="#FFFFFF" d="m156.756,478.878l1.607,0c1.263,0 2.114,0.812 2.114,1.974c0,1.161 -0.851,1.973 -2.114,1.973l-1.607,0l0,-3.947zm1.584,3.586c1.049,0 1.725,-0.665 1.725,-1.612c0,-0.947 -0.677,-1.613 -1.725,-1.613l-1.167,0l0,3.225l1.167,0z"/>
    <path id="svg_125" fill="#FFFFFF" d="m165.139,480.851c0,-1.15 0.879,-2.007 2.075,-2.007c1.184,0 2.069,0.851 2.069,2.007c0,1.156 -0.885,2.007 -2.069,2.007c-1.195,0 -2.075,-0.856 -2.075,-2.007zm3.727,0c0,-0.942 -0.705,-1.635 -1.652,-1.635c-0.953,0 -1.663,0.693 -1.663,1.635c0,0.941 0.71,1.635 1.663,1.635c0.948,0 1.652,-0.693 1.652,-1.635z"/>
    <path id="svg_126" fill="#FFFFFF" d="m179.596,478.878l-1.331,3.947l-0.44,0l-1.156,-3.366l-1.161,3.366l-0.434,0l-1.331,-3.947l0.429,0l1.139,3.394l1.178,-3.394l0.389,0l1.161,3.411l1.156,-3.411l0.401,0z"/>
    <path id="svg_127" fill="#FFFFFF" d="m187.731,478.878l0,3.947l-0.344,0l-2.537,-3.202l0,3.202l-0.417,0l0,-3.947l0.344,0l2.543,3.203l0,-3.203l0.411,0z"/>
    <path id="svg_128" fill="#FFFFFF" d="m193.093,478.878l0.417,0l0,3.586l2.21,0l0,0.361l-2.627,0l0,-3.947z"/>
    <path id="svg_129" fill="#FFFFFF" d="m200.061,480.851c0,-1.15 0.879,-2.007 2.075,-2.007c1.184,0 2.069,0.851 2.069,2.007c0,1.156 -0.885,2.007 -2.069,2.007c-1.195,0 -2.075,-0.856 -2.075,-2.007zm3.727,0c0,-0.942 -0.705,-1.635 -1.652,-1.635c-0.953,0 -1.663,0.693 -1.663,1.635c0,0.941 0.71,1.635 1.663,1.635c0.947,0 1.652,-0.693 1.652,-1.635z"/>
    <path id="svg_130" fill="#FFFFFF" d="m211.636,481.77l-2.199,0l-0.474,1.054l-0.434,0l1.804,-3.947l0.412,0l1.804,3.947l-0.44,0l-0.473,-1.054zm-0.152,-0.338l-0.947,-2.12l-0.947,2.12l1.894,0z"/>
    <path id="svg_131" fill="#FFFFFF" d="m217.28,478.878l1.607,0c1.263,0 2.114,0.812 2.114,1.974c0,1.161 -0.851,1.973 -2.114,1.973l-1.607,0l0,-3.947zm1.584,3.586c1.049,0 1.725,-0.665 1.725,-1.612c0,-0.947 -0.677,-1.613 -1.725,-1.613l-1.167,0l0,3.225l1.167,0z"/>
    <path id="svg_132" fill="#FFFFFF" d="m234.041,481.77l-2.199,0l-0.474,1.054l-0.434,0l1.804,-3.947l0.412,0l1.804,3.947l-0.44,0l-0.473,-1.054zm-0.152,-0.338l-0.947,-2.12l-0.947,2.12l1.894,0z"/>
    <path id="svg_133" fill="#FFFFFF" d="m239.685,478.878l0.417,0l0,3.586l2.21,0l0,0.361l-2.627,0l0,-3.947z"/>
    <path id="svg_134" fill="#FFFFFF" d="m247.082,478.878l0.417,0l0,3.586l2.21,0l0,0.361l-2.627,0l0,-3.947z"/>
    <path id="svg_135" fill="#FFFFFF" d="m260.449,479.239l0,1.551l2.041,0l0,0.361l-2.041,0l0,1.675l-0.417,0l0,-3.947l2.706,0l0,0.361l-2.289,0l0,-0.001z"/>
    <path id="svg_136" fill="#FFFFFF" d="m267.678,478.878l0.417,0l0,3.947l-0.417,0l0,-3.947z"/>
    <path id="svg_137" fill="#FFFFFF" d="m273.456,478.878l0.417,0l0,3.586l2.21,0l0,0.361l-2.627,0l0,-3.947z"/>
    <path id="svg_138" fill="#FFFFFF" d="m283.644,482.464l0,0.361l-2.791,0l0,-3.947l2.706,0l0,0.361l-2.289,0l0,1.404l2.041,0l0,0.355l-2.041,0l0,1.466l2.374,0z"/>
    <path id="svg_139" fill="#FFFFFF" d="m294.672,479.239l0,1.551l2.041,0l0,0.361l-2.041,0l0,1.675l-0.417,0l0,-3.947l2.706,0l0,0.361l-2.289,0l0,-0.001z"/>
    <path id="svg_140" fill="#FFFFFF" d="m301.5,480.851c0,-1.15 0.879,-2.007 2.075,-2.007c1.184,0 2.069,0.851 2.069,2.007c0,1.156 -0.885,2.007 -2.069,2.007c-1.196,0 -2.075,-0.856 -2.075,-2.007zm3.726,0c0,-0.942 -0.705,-1.635 -1.652,-1.635c-0.953,0 -1.663,0.693 -1.663,1.635c0,0.941 0.71,1.635 1.663,1.635c0.948,0 1.652,-0.693 1.652,-1.635z"/>
    <path id="svg_141" fill="#FFFFFF" d="m313.351,482.825l-0.902,-1.269c-0.102,0.011 -0.203,0.017 -0.316,0.017l-1.06,0l0,1.252l-0.417,0l0,-3.947l1.477,0c1.004,0 1.613,0.507 1.613,1.353c0,0.62 -0.327,1.054 -0.902,1.24l0.964,1.353l-0.457,0l0,0.001zm-0.023,-2.594c0,-0.632 -0.417,-0.992 -1.207,-0.992l-1.048,0l0,1.979l1.048,0c0.79,0 1.207,-0.367 1.207,-0.987z"/>
    <path id="svg_142" fill="#FFFFFF" d="m322.907,478.878l0,3.947l-0.4,0l0,-3.158l-1.551,2.656l-0.197,0l-1.551,-2.639l0,3.14l-0.4,0l0,-3.947l0.344,0l1.714,2.926l1.697,-2.926l0.344,0l0,0.001z"/>
    <path id="svg_143" fill="#FFFFFF" d="m330.744,481.77l-2.199,0l-0.473,1.054l-0.434,0l1.804,-3.947l0.411,0l1.804,3.947l-0.44,0l-0.473,-1.054zm-0.152,-0.338l-0.947,-2.12l-0.947,2.12l1.894,0z"/>
    <path id="svg_144" fill="#FFFFFF" d="m336.957,479.239l-1.387,0l0,-0.361l3.192,0l0,0.361l-1.387,0l0,3.586l-0.417,0l0,-3.586l-0.001,0z"/>
    <path id="svg_145" fill="#FFFFFF" d="m343.063,482.346l0.164,-0.321c0.282,0.276 0.784,0.479 1.302,0.479c0.739,0 1.06,-0.31 1.06,-0.699c0,-1.083 -2.43,-0.417 -2.43,-1.877c0,-0.581 0.451,-1.083 1.455,-1.083c0.446,0 0.908,0.13 1.224,0.35l-0.141,0.333c-0.338,-0.22 -0.733,-0.327 -1.083,-0.327c-0.722,0 -1.043,0.321 -1.043,0.716c0,1.083 2.43,0.429 2.43,1.866c0,0.581 -0.462,1.077 -1.472,1.077c-0.592,-0.002 -1.173,-0.21 -1.466,-0.514z"/>
   </g>
  </g>
  <g id="svg_146"/>
  <g id="svg_147">
   <path id="svg_148" fill="#231F20" d="m186.259,51.007c0,-32.748 22.353,-46.4 43.979,-46.4c21.504,0 43.857,13.652 43.857,46.4c0,32.739 -22.353,46.386 -43.857,46.386c-21.626,0 -43.979,-13.648 -43.979,-46.386zm63.672,0c0,-16.434 -7.135,-26.467 -19.694,-26.467c-12.681,0 -19.816,10.033 -19.816,26.467c0,16.427 7.135,27.06 19.816,27.06c12.56,0 19.694,-10.633 19.694,-27.06z"/>
   <path id="svg_149" fill="#231F20" d="m280.689,95.7l0,-89.4l34.915,0c22.951,0 36.974,7.609 36.974,29.113c0,14.013 -5.923,22.111 -17.642,26.097l20.599,34.19l-25.61,0l-18.915,-31.043l-6.639,0l0,31.043l-23.682,0zm23.682,-49.407l10.389,0c9.91,0 14.262,-2.783 14.262,-10.268c0,-7.493 -4.352,-10.153 -14.262,-10.153l-10.389,0l0,20.421z"/>
   <path id="svg_150" fill="#231F20" d="m361.327,95.7l0,-89.4l24.161,0l0,31.179l24.651,-31.179l28.029,0l-30.079,35.28l32.735,54.12l-27.306,0l-21.141,-35.754l-6.89,8.636l0,27.118l-24.16,0z"/>
   <polygon id="svg_151" fill="#231F20" points="195.75900268554688,6.2989959716796875 168.31100463867188,6.2989959716796875 152.48399353027344,33.84199523925781 136.74899291992188,6.2989959716796875 109.17100524902344,6.2989959716796875 140.3470001220703,58.371002197265625 140.3470001220703,95.70001220703125 164.63099670410156,95.70001220703125 164.63099670410156,58.371002197265625 195.7989959716797,6.2989959716796875 "/>
   <path id="svg_152" fill="#231F20" d="m442.26,13.032c0,-4.757 3.669,-8.425 8.423,-8.425c4.685,0 8.316,3.63 8.316,8.351c0,4.757 -3.669,8.425 -8.423,8.425c-4.722,0 -8.316,-3.631 -8.316,-8.351zm15.033,0c0,-3.886 -2.868,-6.864 -6.716,-6.864c-3.778,0 -6.609,2.905 -6.609,6.79c0,3.886 2.831,6.826 6.716,6.826c3.777,0.001 6.609,-2.868 6.609,-6.752zm-9.985,-4.795l3.559,0c2.215,0 3.522,0.982 3.522,3.015c0,1.417 -0.619,2.179 -1.635,2.651l1.817,3.486l-2.324,0l-1.635,-3.231l-1.089,0l0,3.231l-2.215,0l0,-9.152zm3.413,4.285c0.982,0 1.526,-0.326 1.526,-1.161c0,-0.8 -0.544,-1.163 -1.526,-1.163l-1.198,0l0,2.324l1.198,0z"/>
   <g id="svg_153">
    <polygon id="svg_154" fill="#00549D" points="9,95.70401000976562 98.41300201416016,95.70401000976562 98.41300201416016,6.28900146484375 41.94200134277344,6.28900146484375 41.94200134277344,6.365997314453125 35.53300094604492,6.365997314453125 35.5359992980957,6.28900146484375 9,6.28900146484375 9,25.593002319335938 9.045997619628906,25.639007568359375 9.045997619628906,32.376007080078125 9,32.34100341796875 9,44.89599609375 9.045997619628906,44.88200378417969 9.045997619628906,51.61900329589844 9,51.67100524902344 "/>
    <path id="svg_155" fill="#FFFFFF" d="m69.687,44.504l-2.541,-4.402l-9.726,5.616l-12.272,-7.085l12.273,-7.086l9.704,5.603l2.543,-4.402l-7.163,-4.135l5.833,-3.368l-3.206,-5.552l-5.835,3.368l0,-8.276l-5.083,0l0,11.211l-12.272,7.085l0,-14.151l9.705,-5.604l-2.543,-4.402l-7.162,4.136l0,-6.771l-6.41,0l0,15.037c-1.536,0.284 -2.998,0.774 -4.368,1.429l-8.837,-12.163l-5.186,3.769l8.839,12.164c-1.056,1.112 -1.98,2.352 -2.719,3.708l-14.257,-4.64l0,6.751l12.289,3.991c-0.099,0.754 -0.167,1.517 -0.167,2.297c0,0.78 0.069,1.543 0.167,2.297l-12.29,3.971l0,6.769l14.257,-4.64c0.739,1.357 1.663,2.596 2.719,3.708l-8.838,12.164l5.186,3.768l8.836,-12.163c1.37,0.656 2.832,1.147 4.369,1.431l0,15.022l6.41,0l0,-6.758l7.203,4.159l2.543,-4.404l-9.745,-5.625l0,-14.15l12.291,7.096l0,11.185l5.084,0l0,-8.25l5.816,3.358l3.206,-5.552l-5.835,-3.368l7.182,-4.146zm-42.152,-5.872c0,-5.063 3.378,-9.347 7.997,-10.73l0,21.46c-4.62,-1.384 -7.997,-5.667 -7.997,-10.73z"/>
   </g>
  </g>
 </g>
</svg>